<svg xmlns="http://www.w3.org/2000/svg" width="1600" height="1200" viewBox="0 0 1600 1200"><rect width="1600" height="1200" fill="#101010"/><rect x="72" y="72" width="1456" height="1056" rx="12" fill="#151515" stroke="#393939"/><text x="132" y="166" fill="#ff5039" font-family="Arial,sans-serif" font-size="23" letter-spacing="5">BLOCKCHAIN VERIFICATION</text><text x="132" y="314" fill="#ededed" font-family="Arial,sans-serif" font-size="98" letter-spacing="-4">SheProof</text><line x1="132" y1="382" x2="1468" y2="382" stroke="#393939"/><rect x="132" y="526" width="410" height="240" rx="8" fill="#1c1c1c" stroke="#ff5039" stroke-opacity=".45"/><text x="160" y="584" fill="#ff5039" font-family="Arial,sans-serif" font-size="22">01</text><text x="160" y="667" fill="#efefef" font-family="Arial,sans-serif" font-size="29">React</text><path d="M551 646h28m-9-9 9 9-9 9" fill="none" stroke="#999" stroke-width="2"/><rect x="589" y="526" width="410" height="240" rx="8" fill="#1c1c1c" stroke="#ff5039" stroke-opacity=".45"/><text x="617" y="584" fill="#ff5039" font-family="Arial,sans-serif" font-size="22">02</text><text x="617" y="667" fill="#efefef" font-family="Arial,sans-serif" font-size="29">Solidity</text><path d="M1008 646h28m-9-9 9 9-9 9" fill="none" stroke="#999" stroke-width="2"/><rect x="1046" y="526" width="410" height="240" rx="8" fill="#1c1c1c" stroke="#ff5039" stroke-opacity=".45"/><text x="1074" y="584" fill="#ff5039" font-family="Arial,sans-serif" font-size="22">03</text><text x="1074" y="667" fill="#efefef" font-family="Arial,sans-serif" font-size="29">SHA-256</text><text x="132" y="980" fill="#b0b0b0" font-family="Arial,sans-serif" font-size="23">Tools and technologies · Developed project</text><text x="132" y="1058" fill="#777" font-family="Arial,sans-serif" font-size="20" letter-spacing="3">MOHAMED KAIF S A</text><text x="1410" y="1058" fill="#ff5039" font-family="Arial,sans-serif" font-size="23">01</text></svg>